<?xml version="1.0" standalone="no"?>
<!DOCTYPE svg PUBLIC "-//W3C//DTD SVG 20010904//EN"
 "http://www.w3.org/TR/2001/REC-SVG-20010904/DTD/svg10.dtd">
<svg version="1.0" xmlns="http://www.w3.org/2000/svg"
 width="827.000000pt" height="700.000000pt" viewBox="0 0 827.000000 700.000000"
 preserveAspectRatio="xMidYMid meet">

<g transform="translate(0.000000,700.000000) scale(0.100000,-0.100000)"
fill="#000000" stroke="none">
<path d="M5912 6193 c-138 -68 -643 -691 -1376 -1695 -601 -826 -978 -1291
-1123 -1387 -42 -28 -47 -29 -73 -16 -72 37 -137 185 -355 810 -48 138 -193
545 -322 905 -129 360 -261 728 -293 817 -94 263 -199 431 -304 485 -35 18
-51 20 -133 14 -198 -15 -312 -68 -366 -171 -17 -34 -22 -68 -29 -220 -33
-730 -135 -1250 -553 -2829 -195 -736 -237 -905 -280 -1118 -74 -375 -82 -529
-30 -631 38 -77 112 -157 176 -192 74 -40 143 -41 220 -1 70 35 153 106 167
143 6 15 20 100 32 188 39 292 158 892 316 1590 168 741 281 1260 349 1605 28
142 77 348 93 390 9 24 11 22 37 -35 88 -195 227 -578 481 -1323 253 -743 340
-943 472 -1084 70 -75 122 -102 196 -101 134 2 275 90 496 312 223 224 453
512 1005 1258 154 208 345 464 424 568 275 362 578 732 589 721 3 -4 9 -32 13
-64 11 -76 -5 -250 -40 -452 -16 -91 -39 -264 -50 -385 -12 -121 -41 -409 -66
-640 -118 -1116 -173 -1825 -162 -2085 16 -336 116 -503 318 -526 67 -8 207
18 260 48 76 42 117 153 144 388 51 444 186 804 442 1180 320 468 535 604 709
447 61 -54 102 -71 167 -71 63 1 93 17 131 68 17 22 21 42 21 104 0 96 -32
168 -105 236 -123 115 -304 143 -485 75 -183 -68 -398 -279 -608 -595 -142
-215 -213 -354 -329 -644 -27 -69 -52 -127 -55 -130 -25 -23 69 1216 143 1870
13 124 72 576 129 1005 130 978 123 905 96 949 -47 76 -252 201 -369 225 -69
14 -81 14 -120 -6z"/>
<path d="M4745 2199 c-72 -11 -201 -71 -271 -127 -66 -52 -147 -173 -175 -260
-27 -85 -37 -251 -19 -331 37 -170 162 -287 344 -322 186 -35 440 28 569 141
40 36 47 47 47 78 0 45 -8 58 -43 71 -33 13 -50 7 -102 -34 -115 -92 -235
-137 -365 -137 -144 0 -238 49 -295 153 -25 46 -30 68 -33 146 -5 97 2 139 18
114 5 -8 4 -25 -1 -40 -15 -37 17 -75 65 -79 22 -2 46 -13 61 -28 22 -22 31
-24 127 -24 226 0 385 85 461 247 26 57 31 80 32 143 0 66 -4 82 -31 130 -69
123 -218 184 -389 159z m245 -229 c0 -5 -5 -10 -11 -10 -5 0 -7 5 -4 10 3 6 8
10 11 10 2 0 4 -4 4 -10z m10 -159 c0 -16 -19 -23 -43 -15 -21 7 -21 7 -2 15
28 11 45 11 45 0z"/>
<path d="M1858 2181 c-86 -28 -137 -62 -210 -140 -335 -355 -159 -951 260
-882 77 12 159 49 229 102 l52 39 16 -30 c34 -67 152 -119 235 -106 77 12 109
40 94 79 -4 13 -20 15 -74 14 -60 -2 -71 1 -95 23 -59 53 -70 142 -35 265 11
38 20 80 20 92 0 37 -36 65 -78 62 -103 -6 -146 14 -50 23 40 4 57 11 75 33
45 52 6 100 -90 111 -64 7 -57 19 15 25 30 3 41 -2 66 -29 48 -51 118 -42 137
18 10 33 -39 125 -99 186 -37 36 -81 67 -133 92 -72 34 -86 37 -178 39 -77 2
-113 -1 -157 -16z m-178 -385 c0 -2 -7 -6 -15 -10 -8 -3 -15 -1 -15 4 0 6 7
10 15 10 8 0 15 -2 15 -4z m-45 -135 c3 -5 31 -13 62 -17 65 -8 52 -18 -34
-26 -53 -5 -53 -5 -53 23 0 28 13 38 25 20z m65 -317 c0 -14 -3 -14 -15 -4 -8
7 -15 14 -15 16 0 2 7 4 15 4 8 0 15 -7 15 -16z"/>
<path d="M3961 2161 c-18 -18 -19 -31 -14 -193 6 -192 -6 -289 -53 -434 -77
-240 -205 -303 -314 -153 -46 65 -113 283 -140 464 -14 90 -30 115 -74 115
-49 0 -65 -24 -76 -121 -26 -207 -95 -384 -190 -481 -52 -54 -59 -58 -103 -58
-89 0 -141 77 -174 255 -11 60 -13 143 -11 333 3 241 2 254 -16 268 -54 39
-99 -3 -116 -107 -15 -85 -8 -404 10 -484 47 -207 132 -347 237 -392 45 -18
121 -16 169 6 47 21 99 70 143 135 33 47 104 188 115 228 5 19 14 6 49 -78 56
-134 87 -183 148 -238 108 -97 224 -85 335 36 130 143 204 388 204 674 -1 143
-10 192 -45 222 -32 27 -59 28 -84 3z"/>
</g>
</svg>
